<?xml version="1.0" encoding="utf-8"?>
<!-- Generator: Adobe Illustrator 16.0.0, SVG Export Plug-In . SVG Version: 6.00 Build 0)  -->
<!DOCTYPE svg PUBLIC "-//W3C//DTD SVG 1.1//EN" "http://www.w3.org/Graphics/SVG/1.1/DTD/svg11.dtd">
<svg version="1.1" id="Layer_1" xmlns="http://www.w3.org/2000/svg" xmlns:xlink="http://www.w3.org/1999/xlink" x="0px" y="0px"
	 width="70px" height="70px" viewBox="0 0 70 70" enable-background="new 0 0 70 70" xml:space="preserve">
<g>
	<circle fill="#744C9E" cx="35" cy="35" r="35"/>
</g>
<g>
	<g>
		<path fill="#FFFFFF" d="M35,13.477c-11.519,0-20.856,9.337-20.856,20.856c0,11.518,9.337,20.855,20.856,20.855
			c11.517,0,20.855-9.338,20.855-20.855C55.855,22.814,46.518,13.477,35,13.477z M18.625,34.55l16.157,16.156
			C25.911,50.591,18.741,43.421,18.625,34.55z M38.666,50.298l-19.63-19.63C20.7,23.387,27.216,17.956,35,17.956
			c5.441,0,10.261,2.655,13.24,6.739l-2.268,2.001c-2.414-3.464-6.43-5.732-10.972-5.732c-5.785,0-10.711,3.675-12.574,8.817
			l17.126,17.125c4.158-1.506,7.357-5.016,8.43-9.365h-7.1v-3.207h7.486l0,0h3.008l0,0C51.377,42.116,45.945,48.634,38.666,50.298z"
			/>
	</g>
</g>
</svg>
