<?xml version="1.0" encoding="utf-8"?>
<!-- Generator: Adobe Illustrator 16.0.0, SVG Export Plug-In . SVG Version: 6.00 Build 0)  -->
<!DOCTYPE svg PUBLIC "-//W3C//DTD SVG 1.1//EN" "http://www.w3.org/Graphics/SVG/1.1/DTD/svg11.dtd">
<svg version="1.1" id="Layer_1" xmlns="http://www.w3.org/2000/svg" xmlns:xlink="http://www.w3.org/1999/xlink" x="0px" y="0px"
	 width="70px" height="70px" viewBox="0 0 70 70" enable-background="new 0 0 70 70" xml:space="preserve">
<g>
	<circle cx="35" cy="35" r="35"/>
</g>
<g id="Page-1">
	<g id="next-white" transform="translate(-123.000000, -136.000000)">
		<g id="Group" transform="translate(123.000000, 135.000000)">
			<g id="EXT-_x2B_-Type-something">
				<path id="EXT" fill="#FFFFFF" d="M21.294,29.457h10.129v0.805h-9.201v6.06h8.652v0.805h-8.652v6.653h9.307v0.805H21.294V29.457z
					 M32.332,29.457h1.076l4.769,6.653l4.875-6.653l6.631-8.45L38.788,36.809l5.614,7.775h-1.118l-5.107-7.076l-5.128,7.076h-1.097
					l5.655-7.775L32.332,29.457z M44.803,30.262v-0.805h11.544v0.805h-5.318v14.322H50.1V30.262H44.803z"/>
				<polygon id="Type-something" fill="#FFFFFF" points="8.622,29.457 9.783,29.457 25.788,53.406 19.174,44.584 9.593,30.601 
					9.551,44.584 8.622,44.584 				"/>
			</g>
			<path id="_x2E_JS" fill="#D4D4D4" d="M56.253,43.536c0.192,0,0.332-0.147,0.332-0.337c0-0.19-0.14-0.338-0.332-0.338
				c-0.189,0-0.332,0.147-0.332,0.338C55.921,43.389,56.063,43.536,56.253,43.536z M57.165,42.649c0,0.561,0.404,0.927,0.994,0.927
				c0.628,0,1.007-0.377,1.007-1.032v-2.31H58.66v2.307c0,0.364-0.183,0.558-0.506,0.558c-0.288,0-0.485-0.18-0.492-0.449H57.165z
				 M59.828,42.62c0.036,0.584,0.521,0.956,1.244,0.956c0.772,0,1.256-0.391,1.256-1.015c0-0.49-0.275-0.763-0.944-0.918
				l-0.358-0.088c-0.425-0.1-0.597-0.234-0.597-0.467c0-0.294,0.267-0.486,0.666-0.486c0.38,0,0.643,0.188,0.689,0.489h0.492
				c-0.03-0.55-0.513-0.937-1.175-0.937c-0.711,0-1.186,0.387-1.186,0.968c0,0.479,0.269,0.764,0.858,0.902l0.42,0.102
				c0.432,0.103,0.622,0.251,0.622,0.5c0,0.289-0.299,0.5-0.706,0.5c-0.436,0-0.738-0.197-0.781-0.507H59.828z"/>
		</g>
	</g>
</g>
</svg>
