<?xml version="1.0" encoding="utf-8"?>
<!-- Generator: Adobe Illustrator 16.0.0, SVG Export Plug-In . SVG Version: 6.00 Build 0)  -->
<!DOCTYPE svg PUBLIC "-//W3C//DTD SVG 1.1//EN" "http://www.w3.org/Graphics/SVG/1.1/DTD/svg11.dtd">
<svg version="1.1" id="Layer_1" xmlns="http://www.w3.org/2000/svg" xmlns:xlink="http://www.w3.org/1999/xlink" x="0px" y="0px"
	 width="70px" height="70px" viewBox="0 0 70 70" enable-background="new 0 0 70 70" xml:space="preserve">
<g>
	<circle fill="#CCD6DD" cx="35" cy="35" r="35"/>
</g>
<g id="nuxt">
	<g id="jUn0NK.tif" display="none">
		
			<image display="inline" overflow="visible" enable-background="new    " width="190" height="135" id="Layer_1_2_" xlink:href="AE624B4D12CD50B.png"  transform="matrix(0.0507 0 0 0.0507 29.1855 11.8643)">
		</image>
	</g>
	<g>
		<path fill="#41B883" d="M24.771,39.84h-7.653H8.848L29.53,4.161L50.211,39.84h-8.168H34.39"/>
		<path fill="#328170" d="M48.18,39.84h10.973L41.212,9L23.423,39.84h10.972"/>
		<path fill="#35495E" d="M41.662,39.84h8.083L36.528,17.125L23.423,39.84h8.083"/>
	</g>
</g>
<g>
	<path d="M16.408,46.594v8.28c0,0.188-0.159,0.347-0.347,0.347s-0.347-0.159-0.347-0.347v-9.277c-0.043-0.145,0-0.289,0.13-0.39
		c0.159-0.102,0.39-0.072,0.491,0.087l6.127,8.496v-8.236c0-0.188,0.159-0.347,0.347-0.347c0.202,0,0.361,0.159,0.361,0.347v9.32
		c0,0.188-0.159,0.347-0.361,0.347c-0.116,0-0.202-0.043-0.274-0.13c-0.015-0.015-0.043-0.029-0.058-0.058L16.408,46.594z"/>
	<path d="M26.106,45.452c0-0.188,0.159-0.347,0.347-0.347c0.202,0,0.361,0.159,0.361,0.347v5.679c0,1.864,1.518,3.367,3.367,3.382
		c1.878-0.015,3.396-1.518,3.396-3.382v-5.679c0-0.188,0.159-0.347,0.347-0.347c0.202,0,0.361,0.159,0.361,0.347v5.679
		c0,2.255-1.835,4.09-4.104,4.09c-2.24,0-4.075-1.835-4.075-4.09V45.452z"/>
	<path d="M37.396,54.657l3.251-4.465l-3.251-4.466c-0.131-0.158-0.102-0.39,0.058-0.491c0.159-0.13,0.39-0.101,0.491,0.059
		L41.08,49.6l3.135-4.306c0.131-0.159,0.333-0.188,0.492-0.059c0.158,0.102,0.202,0.333,0.072,0.491l-3.267,4.466l3.267,4.465
		c0.13,0.159,0.086,0.376-0.072,0.491c-0.072,0.043-0.131,0.072-0.203,0.072c-0.115,0-0.217-0.058-0.289-0.159l-3.135-4.291
		l-3.136,4.291c-0.059,0.102-0.174,0.159-0.275,0.159c-0.071,0-0.144-0.029-0.216-0.072C37.294,55.033,37.265,54.816,37.396,54.657z
		"/>
	<path d="M50.764,45.813h-3.049c-0.188,0-0.347-0.159-0.347-0.361c0-0.188,0.159-0.347,0.347-0.347h6.792
		c0.188,0,0.347,0.159,0.347,0.347c0,0.202-0.159,0.361-0.347,0.361h-3.05v9.061c0,0.188-0.158,0.347-0.347,0.347
		c-0.188,0-0.347-0.159-0.347-0.347V45.813z"/>
</g>
</svg>
