<svg height="140" viewBox="0 0 140 140" width="140" xmlns="http://www.w3.org/2000/svg"><g fill="none" fill-rule="nonzero"><circle cx="70" cy="70" fill="#ccd6dd" r="70"/><g fill="#000" transform="translate(22 94)"><path d="m12.6910019.32038085c.1859709.17989972.2858038.42184136.2768706.6709863v12.89986285c.0077514.276202-.1036388.5438484-.3094436.7435254-.2057578.2002806-.493444.3101345-.7915242.302246-.1670659.0002567-.3331052-.024231-.4918524-.072539-.1453778-.0415795-.2759341-.1188607-.377847-.2236621l-9.0064375-10.88085902v10.24311972c.00821009.2499541-.09519349.4919575-.28575887.6687838s-.45137211.2727748-.72074717.2651566c-.26676767.0094886-.5251804-.0873042-.71009164-.2659765-.18396305-.179649-.28253395-.4202872-.27361329-.6679639v-12.92706494c-.00675836-.27540704.11142509-.54079108.32573011-.73143552.20056609-.19094969.4782361-.29510646.76546576-.28713378.1807775-.00080964.35999912.03101327.52768278.09369628.15257708.05479437.28646073.14666275.38761883.26597656l8.96734989 10.9050387v-10.33077115c-.0082101-.24995404.0951935-.49195749.2857589-.66878376s.4513721-.2727748.7207472-.26515663c.2660563-.00911932.5239066.08636524.7100916.26295409zm18.5014703 0c.1947935.20094366.2976045.46437412.2866425.73445798v8.16064426c.0186532 1.05478831-.2574077 2.09608061-.8012961 3.02246081-.5151011.8739898-1.2805175 1.5988662-2.2117075 2.0945654-.9649003.5136968-2.0602375.7787453-3.1726112.767705-1.1223417.0164627-2.2293588-.2432063-3.2084416-.7525927-.9354196-.4936154-1.7045447-1.2188001-2.2214794-2.0945654-.5438884-.9263802-.8199493-1.9676725-.801296-3.02246081v-8.16064425c-.0085014-.27658963.109888-.54353464.3257301-.73445799.2197422-.19944772.5167798-.30838931.8240972-.30224608.2897382.00018003.5670512.10921379.768723.30224608.2134659.18741555.3317522.44973769.3257301.72236814v8.16064426c-.0117815.69671042.1783369 1.38356725.5504839 1.98877925.7018279 1.1480039 2.0140498 1.8577986 3.4364527 1.8588134.714095.0047137 1.4170823-.1640935 2.0390705-.4896387.6274866-.3217656 1.1496691-.7948137 1.5113877-1.3691747.378133-.603336.5718308-1.29091874.5602558-1.98877925v-8.16064426c-.010582-.26789843.0869914-.52981398.2736132-.73445798.192414-.19987277.4702614-.3105232.7589512-.30224608.2866281-.00611121.562127.10297498.7556939.29922362zm17.6317708 13.08725545c.1374105.1754368.2094522.3876517.20521.6044921.0120518.2736648-.1072374.538211-.3257301.7223682-.201591.1768127-.4685261.2752397-.745922.2750439-.3565543.0125424-.6945286-.147695-.8925005-.4231445l-4.4527306-5.51599103-4.3517543 5.50692363c-.1960474.2799718-.5326945.4475604-.8925005.4443017-.2631102.0053971-.5167949-.0909505-.7003197-.2659765-.1820733-.1556833-.2859537-.3747537-.2866425-.6044922.0050333-.2559163.1025347-.5028515.2768706-.7012109l4.6970282-5.9330906-4.7198293-5.88775371c-.1473735-.17203533-.2287508-.38474047-.2312684-.60449217-.006022-.27263045.1122642-.53495259.3257301-.72236814.2016719-.19303229.4789849-.30206605.7687231-.30224608.1707716.00080805.339057.03803647.4918525.10880859.1614582.07102968.2997122.18054247.400648.31735839l4.4006138 5.48576641 4.3582688-5.43136212c.1923764-.27632814.5156985-.45049222.8696994-.46848143.2762463.00137623.5389581.11118306.7231209.30224609.2001389.16591433.3179291.40090496.3257301.64982908-.007705.21837315-.0872742.42932328-.2280111.60449216l-4.781718 5.90588847zm16.5308031-13.08725545c.2154667.18232492.3344304.44283797.3257301.71330076.0079501.26683146-.1112126.52335725-.3257301.70121091-.2205445.17316702-.5028105.26370573-.7915242.25388671h-4.078141v11.92965287c.0056154.2725586-.1126049.5347343-.3257301.7223682-.4769434.3949139-1.1973093.3949139-1.6742527 0-.2121169-.188278-.3301432-.4500237-.3257301-.7223682v-11.92965287h-4.0683691c-.2895108.01020478-.5720282-.08403885-.7882669-.26295409-.2094603-.18505659-.322315-.44519872-.3094436-.71330076-.0092214-.26132193.1035751-.51361789.3094436-.69214353.2162387-.17891525.4987561-.27315887.7882669-.26295409h10.472223c.2904125-.0097343.5737622.08439794.7915242.26295409z"/><path d="m69.9967257 14.7232748c-.7416791-.3897626-1.3587292-.9550251-1.7882583-1.6381737-.1273437-.1689383-.1997027-.3682665-.2084672-.5742676-.0001611-.2665943.1261229-.5197459.3452739-.6921435.1865118-.1810694.4405225-.2891875.7100916-.3022461.4092306.0354774.7837291.2284103 1.0325645.5319531.5091041.7773546 1.4236783 1.2465196 2.4038882 1.233164.7956086.0172149 1.5645712-.2664487 2.1302749-.7858398.5711706-.5022088.8880459-1.2043693.8729567-1.9343749v-9.31824677c-.0035172-.27527371.1211439-.53856839.3420166-.72236814.2135449-.1950658.5016427-.30373529.8012961-.30224609.3026931-.01370734.5978299.09035889.8143252.28713378.2069922.19405285.3188885.45854342.3094436.73143552v9.339404c.0085656.8371206-.2290557 1.6605604-.6872905 2.3816991-.4541111.7186699-1.1061731 1.3122453-1.8892346 1.7197802-.8208667.4313244-1.7505292.6524599-2.693788.6407617-.8736572.008588-1.7343011-.1967946-2.4950927-.5954248zm15.7523081.157168c-.9077889-.3197756-1.7405834-.799026-2.4527477-1.4114892-.2936531-.2090688-.4696603-.5301491-.4788232-.8734912.0035044-.2611632.1210446-.5098335.3257301-.689121.1949458-.1947926.4692194-.3044906.7556938-.3022461.2413325-.0030739.4746567.0802795.6514602.2327295.5502187.4874261 1.1900632.8794819 1.8892347 1.1576025.7032548.2594682 1.4550106.3868571 2.2117074.3747851.8618206.0253109 1.7119098-.1905825 2.4397185-.6196045.6055981-.3157479.9850628-.9060442.9967342-1.5505224.0113638-.6923621-.366192-1.34036799-.9967342-1.71071282-.914906-.49853134-1.9189062-.84046485-2.964144-1.00950192-1.5765337-.30224608-2.7849924-.78886227-3.635148-1.46891596s-1.2703474-1.62306147-1.2703474-2.82600088c-.0179547-.7900129.232783-1.56519485.7166062-2.21546379.4919943-.64549018 1.1690399-1.15017065 1.9543807-1.45682613.8982352-.351604 1.8656073-.52557086 2.8403666-.51079588.9136469-.00538732 1.8211499.1388807 2.6807588.42616698.7582008.2372812 1.4532905.62158809 2.0390704 1.12737789.3128584.21407191.5063663.5465841.5276828.90673825-.0000195.25614427-.1116202.5014053-.3094436.68005369-.1894378.19661246-.4617426.30694979-.7459219.30224608-.1921085.00684811-.3797554-.0547962-.5244255-.17228026-.4752225-.41361035-1.0374757-.73157969-1.6514517-.9339404-.6359423-.23788983-1.3143362-.36296648-1.9999828-.36874022-.8587614-.04097721-1.7103753.16369808-2.4397186.5863574-.5663695.34823446-.9069237.93670514-.9069237 1.56714594s.3405542 1.21891148.9069237 1.56714594c.8343471.45146248 1.7452052.76828039 2.693788.93696286 1.0073971.18396556 1.9903305.46873325 2.931571.8493115.7103431.29145918 1.3177246.76286458 1.752428 1.36010737.4404064.68654524.6544287 1.47776086.6156299 2.27591306.0127291.7845799-.2477314 1.552027-.7426646 2.1882616-.5207353.6560723-1.2214879 1.1706208-2.0292986 1.4900732-.8879649.3605438-1.8483676.5418668-2.8175655.5319531-1.0084502.017418-2.0121798-.1320096-2.964144-.4412793z"/></g><g transform="translate(22 12)"><path d="m27.0553661 65.7012204c-.0659699-.1201789-.1247226-.2444127-.1759274-.3720017-.355155-.8464146-.4645072-1.7807408-.3148174-2.6898583h-21.00943274l31.22248004-56.60148693 10.2500846 18.56193013 2.9722468-5.4178707-8.935259-16.21545794c-.250002-.46738673-1.7592738-2.96647496-4.3611471-2.96647496-1.1759356 0-2.8611347.52461776-4.2315164 3.00462898l-31.62989082 57.28825922c-.26852074.4960022-1.57408707 3.100014-.27778007 5.4083322.59259748 1.0492355 1.85186714 2.2987796 4.62966786 2.2987796h26.49095953c-2.7592821 0-4.0370704-1.2304671-4.6296679-2.2987796z" fill="#00c58e"/><path d="m62.3091518 13.0108767c-.2760754-.4970336-1.8182893-3.0108767-4.5028839-3.0108767-1.2090195 0-2.9416302.5161503-4.3505664 3.0013184l-3.4557015 6.0791035 3.074908 5.4291364 4.7599195-8.4591298 26.4365927 46.5777851h-10.2623863c.1286382.7699968.0564839 1.4743473-.2094365 2.20803-.0373361.1079876-.1383543.3501143-.3030545.72638-1.3518171 2.313118-4.0570317 2.4373764-4.6282221 2.4373764h15.726774c.5807101 0 3.4937809-.1242584 4.845598-2.4373764.5997499-1.0514173 1.0281426-2.81971-.4093531-5.2857614z" fill="#148576"/><path d="m73.4386754 65.5586166.0848818-.1723329c.0825751-.1499.1520054-.3068808.2074887-.4691286.2634475-.7348888.3349308-1.5265098.2074888-2.2977725-.1467842-.831811-.4407548-1.6297599-.8676804-2.3552169l-20.0603932-35.826104-3.0651752-5.4380617-3.0463127 5.4380617-20.0509619 35.826104c-.3893129.7340748-.6509395 1.5308339-.7733673 2.3552169-.1613736.9097405-.0598286 1.8474533.2923706 2.6998827.0521557.1280646.1119997.2527613.1791948.3733881.6036038 1.0531457 1.8862617 2.3073466 4.7156543 2.3073466h37.3479817c.5941725 0 3.4895842-.1244627 4.82883-2.4413834zm-23.4433062-35.5586166 18.0046308 32h-36z" fill="#2f495e"/></g></g></svg>
